Coordinates
version=1
nRows=15
nColumns=34
inDegrees=yes

Units are S.I. units (second, meters, Newtons, ...)
If the header above contains a line with 'inDegrees', this indicates whether rotational values are in degrees (yes) or radians (no).

endheader
time	pelvis_tilt	pelvis_list	pelvis_rotation	pelvis_tx	pelvis_ty	pelvis_tz	hip_flexion_r	hip_adduction_r	hip_rotation_r	knee_angle_r	ankle_angle_r	subtalar_angle_r	mtp_angle_r	hip_flexion_l	hip_adduction_l	hip_rotation_l	knee_angle_l	ankle_angle_l	subtalar_angle_l	mtp_angle_l	lumbar_extension	lumbar_bending	lumbar_rotation	arm_flex_r	arm_add_r	arm_rot_r	elbow_flex_r	pro_sup_r	arm_flex_l	arm_add_l	arm_rot_l	elbow_flex_l	pro_sup_l
      4.93333330	    -16.83315075	     -1.37873458	      3.80664401	      0.29048620	      0.46629465	     -0.05490509	     98.08952190	    -35.49929428	      5.51781555	    119.44834551	     42.29469428	      6.56975285	      0.00000000	    103.70365047	    -23.54036992	      9.84700318	    120.57643248	     40.30394905	     18.17631528	      0.00000000	    -44.04917617	      6.31522918	      7.36841988	    124.45675670	     -3.94501570	     61.17691011	    127.10090515	     85.01267552	    127.16709437	     -2.95734592	     76.17875532	    122.80400588	     82.79283954
      4.95000000	    -16.79738353	     -1.65402559	      3.67767810	      0.29216487	      0.45345617	     -0.05513802	     99.41851971	    -36.01236739	      6.33205113	    121.04467478	     43.02941514	      7.62056482	      0.00000000	    105.38222937	    -23.58338019	     11.13115963	    122.40368922	     40.64998621	     18.80768204	      0.00000000	    -44.04821917	      6.59554022	      7.66932935	    124.30894541	     -3.88480703	     62.12399137	    127.58889240	     78.23961717	    126.58352275	     -3.02862042	     76.51800881	    123.12232495	     76.78554282
      4.96666670	    -16.72526277	     -1.82638622	      3.66103077	      0.29864236	      0.44410756	     -0.05442101	    100.69714178	    -36.60493264	      7.33272922	    122.99571630	     44.14754255	      8.81157727	      0.00000000	    106.81188579	    -23.78690655	     12.46179357	    124.35563960	     40.63588138	     19.02669692	      0.00000000	    -44.06942016	      6.79614377	      7.78271017	    123.90829296	     -3.70916348	     62.36888333	    127.81277722	     78.25675114	    125.89728945	     -3.01586252	     77.12286450	    123.55532039	     76.77570445
      4.98333330	    -16.60431293	     -1.86005457	      3.58727868	      0.29647198	      0.43608455	     -0.05796319	    101.86522673	    -37.10492145	      8.37261856	    124.31580030	     44.56037246	      9.66753542	      0.00000000	    108.04326485	    -23.73332308	     13.17965879	    125.94172479	     40.89183113	     19.03759524	      0.00000000	    -44.25929732	      6.90104221	      7.77297563	    123.49063936	     -3.66818962	     62.51993472	    127.81548933	     78.25304621	    125.51728754	     -2.87293474	     77.46744338	    123.56017260	     76.73357958
      5.00000000	    -16.43494422	     -2.08613384	      3.63956787	      0.30226448	      0.42720036	     -0.06101097	    103.20726076	    -37.78791371	      9.78819976	    125.86383026	     45.15219895	     11.25329318	      0.00000000	    109.14757411	    -23.63538517	     14.09687508	    127.58210997	     40.94309239	     18.85270736	      0.00000000	    -44.35237734	      7.39837936	      7.85734564	    122.88521730	     -3.72820083	     62.77837005	    128.44448100	     78.28220543	    124.97891326	     -2.64567803	     77.58152086	    123.62512740	     76.67920194
      5.01666670	    -16.19067843	     -2.24468033	      3.83838624	      0.30214619	      0.42233671	     -0.06341547	    104.39954943	    -38.35232898	     11.17603141	    127.16967877	     44.98863417	     12.11323944	      0.00000000	    109.70788380	    -23.26769009	     14.65841979	    128.96195705	     41.23710808	     18.70337972	      0.00000000	    -44.68229349	      7.87797856	      8.03791971	    122.50432196	     -4.04345855	     63.21882966	    128.51581499	     78.30667560	    124.31869355	     -2.07709355	     77.64815463	    123.30774985	     76.60851131
      5.03333330	    -15.80328527	     -2.30825793	      3.93479863	      0.29715098	      0.41066657	     -0.05774638	    105.67499790	    -38.58459025	     12.33818906	    128.60349760	     45.36882297	     12.94129827	      0.00000000	    110.71222592	    -23.05134400	     15.60204395	    130.13795768	     41.01674222	     18.27722523	      0.00000000	    -45.33107562	      7.85838787	      8.22045353	    122.63736449	     -4.12828381	     63.06311383	    128.50085433	     78.27839580	    124.82328051	     -1.75060195	     77.36526714	    123.17393983	     76.55470141
      5.05000000	    -15.58556087	     -2.43774250	      4.30244091	      0.30331549	      0.40238828	     -0.06268906	    106.98902986	    -39.27420994	     14.08588018	    130.11985208	     46.11465229	     14.13887336	      0.00000000	    111.99606663	    -22.57508145	     16.65991243	    131.64202156	     41.06182087	     18.49137261	      0.00000000	    -45.59394166	      8.32577386	      8.29868495	    122.53830369	     -4.46117899	     63.17335930	    128.96865701	     78.27605308	    124.79049466	     -1.46074390	     77.42130906	    123.55885283	     76.53837661
      5.06666670	    -15.25263532	     -2.46360637	      4.45753300	      0.29936285	      0.39366770	     -0.06027291	    108.06248341	    -39.55290524	     15.56429327	    131.39176619	     46.16330960	     14.86946581	      0.00000000	    113.15817092	    -22.12403226	     17.65789328	    132.86961809	     41.14223589	     18.59742834	      0.00000000	    -46.08242573	      8.28549984	      8.25432723	    122.71294715	     -4.46623568	     63.05960738	    129.06975746	     78.24041457	    125.30913626	     -1.29273085	     77.17125571	    123.38010381	     76.50119789
      5.08333330	    -14.93116946	     -2.51066801	      4.78919237	      0.30390530	      0.38919091	     -0.06070349	    109.22031922	    -39.81971915	     17.35862219	    132.74487030	     46.35303915	     15.56885987	      0.00000000	    113.99695074	    -21.76801308	     18.52825548	    133.89480378	     41.15938323	     18.96997734	      0.00000000	    -46.40554733	      8.43399449	      8.16064619	    122.20337567	     -4.72772484	     63.25450675	    129.64441286	     78.22371788	    124.99131097	     -1.16077548	     77.39784006	    123.32758724	     76.44637544
      5.10000000	    -14.79972556	     -2.52466937	      4.99372548	      0.30471115	      0.38666288	     -0.06132017	    109.67571390	    -40.10059262	     18.19886414	    133.35728326	     46.63487197	     16.54759772	      0.00000000	    114.56651171	    -21.50831375	     18.88619931	    134.60877144	     40.82582094	     18.79995790	      0.00000000	    -46.62029193	      8.40079455	      8.07750193	    121.53637195	     -5.12073373	     63.44806728	    129.82399788	     78.21328258	    124.45239000	     -0.92261928	     77.99408195	    123.37634805	     76.41351033
      5.11666670	    -14.73941024	     -2.57208084	      5.26715032	      0.30984770	      0.38341428	     -0.05939007	    110.60216087	    -40.07768019	     19.56112257	    134.27305956	     46.41756069	     16.90062590	      0.00000000	    114.83599113	    -21.58626502	     19.32480415	    134.92411415	     40.87741183	     19.06991733	      0.00000000	    -46.57403089	      8.47187181	      8.06479624	    120.54079263	     -5.24855789	     64.13057438	    130.51407537	     78.24451609	    123.54236811	     -0.82737922	     78.61826175	    123.73114993	     76.39397364
      5.13333330	    -15.19680110	     -2.63079382	      5.39613130	      0.31379338	      0.37729484	     -0.06441596	    112.14719197	    -40.14924672	     21.22574181	    135.04544943	     46.22063782	     17.63101621	      0.00000000	    115.73200144	    -21.56737293	     19.61461924	    135.70312633	     41.37299657	     19.50156628	      0.00000000	    -45.60065658	      8.71458310	      7.93728227	    119.16444239	     -5.35551325	     64.80290168	    131.08986534	     78.31536679	    122.41127884	     -0.61000358	     78.87972694	    123.47160542	     76.32769843
      5.15000000	    -14.98944392	     -2.79933857	      5.43986720	      0.30380374	      0.37430279	     -0.06223066	    112.81314485	    -39.75875106	     22.07044214	    135.49465256	     45.46964969	     17.92966078	      0.00000000	    116.23930292	    -21.22895960	     20.03722438	    135.97445726	     41.21554349	     19.56572217	      0.00000000	    -45.98534905	      8.82568817	      8.13654561	    119.26885992	     -5.38765273	     64.61583596	    130.84845151	     78.30592468	    122.89267346	     -0.43682711	     78.75879542	    123.23057184	     76.30602453
      5.16666670	    -14.78489274	     -2.80875750	      5.44947695	      0.30718279	      0.37527186	     -0.06610295	    112.99355702	    -39.69094996	     22.74578010	    135.59437865	     45.22702398	     18.39706940	      0.00000000	    116.47884770	    -20.93107073	     20.19982926	    136.44966050	     40.54823665	     19.33705857	      0.00000000	    -46.20270118	      8.96251082	      8.14126758	    119.18643030	     -5.55433281	     64.65525145	    130.80695816	     78.31168097	    122.74191801	     -0.26463372	     78.89695624	    123.07442141	     76.28316063
